# xmcd
#
# Track frame offsets: 
#        150
#        13942
#        31827
#        48030
#        72182
#        83715
#        98097
#        110095
#        124395
#        144060
#
# Disc length: 2066 seconds
#
# Revision: 1
# Processed by: cddbd v1.5.2PL0 Copyright (c) Steve Scherf et al.
# Submitted via: ExactAudioCopyFreeDBPlugin 1.0
#
DISCID=7b08100a
DTITLE=Marius Müller-Westernhagen - Geiler Is' Schon
DYEAR=1983
DGENRE=Deutsch Rock
TTITLE0=Lilli, Die Mücke
TTITLE1=Take Four, Because Your Birne Is Weich
TTITLE2=Mutter
TTITLE3=Der Schwarze Mann
TTITLE4=Wäre Ich Ein Tier
TTITLE5=Jetzt Komm' Wir
TTITLE6=Gitti Kleinlich
TTITLE7=Neues Von Hilde
TTITLE8=Lass Uns Leben
TTITLE9=Geiler Is' Schon
EXTD=
EXTT0=
EXTT1=
EXTT2=
EXTT3=
EXTT4=
EXTT5=
EXTT6=
EXTT7=
EXTT8=
EXTT9=
PLAYORDER=
